PathFileType	4	(X/Y/Z)	37_2_81_p1_0-590_filt_butterworth.trc
DataRate	CameraRate	NumFrames	NumMarkers	Units	OrigDataRate	OrigDataStartFrame	OrigNumFrames
52.0	52.0	7	27	m	52.0	221	590
Frame#	Time	RHip			RKnee			RAnkle			RBigToe			RSmallToe			RHeel			LHip			LKnee			LAnkle			LBigToe			LSmallToe			LHeel			Neck			Head			Nose			RShoulder			RElbow			RWrist			RThumb			RIndex			RPinky			LShoulder			LElbow			LWrist			LThumb			LIndex			LPinky			
		X1	Y1	Z1	X2	Y2	Z2	X3	Y3	Z3	X4	Y4	Z4	X5	Y5	Z5	X6	Y6	Z6	X7	Y7	Z7	X8	Y8	Z8	X9	Y9	Z9	X10	Y10	Z10	X11	Y11	Z11	X12	Y12	Z12	X13	Y13	Z13	X14	Y14	Z14	X15	Y15	Z15	X16	Y16	Z16	X17	Y17	Z17	X18	Y18	Z18	X19	Y19	Z19	X20	Y20	Z20	X21	Y21	Z21	X22	Y22	Z22	X23	Y23	Z23	X24	Y24	Z24	X25	Y25	Z25	X26	Y26	Z26	X27	Y27	Z27	
221	4.25	0.34303989358274956	0.6588478586785959	0.5745806290151202	0.3272079564484702	0.8061495935535784	0.9854153862041088	0.3353847831725974	0.9369877667901769	1.3918457818019543	0.305125572167244	0.7751254522796727	1.4057827773150484	0.37564556035801494	0.7945706273190738	1.4076033067820815	0.34306923676264856	1.0016574071833884	1.4589626064097543	0.12856295424938888	0.7348564080159808	0.5985761719757429	0.12203156382553446	0.8444395762659378	0.9833013016260241	0.12586717632500483	0.9568973610324863	1.3945445551517353	0.14872692604392257	0.8567405086929245	1.4243863993398866	0.19164871526695573	1.1819812998076702	1.5545166654128257	0.13360036383705834	1.0037035911849705	1.4319849620911267	0.24175555210250946	0.6149330251042705	0.0012604509486808064	0.2164418287816515	0.532656491006338	-0.23731636972452752	0.20993988693554755	0.48315342602251754	-0.09587714620051835	0.4080660672009494	0.5737088333944375	0.11077542022566701	0.432415134892498	0.6046621680203732	0.3910555416009498	0.29223844655848674	0.5165777341672186	0.5918052337180371	0.18794224159727863	0.5320864836783235	0.6838158255646815	0.18825030862451214	0.5367978822197434	0.6947392770636238	0.22811716069401478	0.6028401453208954	0.7118320878083071	0.0926981911970251	0.6163135250668799	0.11589407420457674	0.0746926736238584	0.6548235957149507	0.4126078936795492	0.17864297930184536	0.5264463335182861	0.60630380613076	0.22610924519736095	0.5629346607031008	0.6771885293994754	0.22671989404625725	0.5717235804538158	0.6979213691609596	0.20853671617586556	0.569039207868989	0.7091686710886856
222	4.269230769230769	0.3430690130743975	0.6586395645888836	0.5755256391985052	0.32721329254220244	0.8073680557433488	0.9875182897204722	0.33487401313462073	0.9368246636644456	1.3923282605089367	0.3042118909145169	0.7777655250676645	1.4070008080311547	0.37721947232385356	0.7991030689622547	1.4092052395834949	0.3441068032810358	1.0014511796966117	1.4588547873039484	0.1282895752010932	0.7349146974879823	0.5986312881138451	0.12021253271386648	0.8417552418053478	0.986355217986058	0.12697948166025527	0.957425222271569	1.3948403357073875	0.14810415449987052	0.8563587347678489	1.423323843822393	0.18667684685096878	1.1702852179783054	1.5492948975490874	0.13357947139409218	1.0035428079016082	1.4317662444229113	0.2405701768965212	0.61218535804642	0.002701280015227649	0.2153019756591812	0.5339866767590195	-0.23682953616559005	0.20995889289043204	0.4835168005442761	-0.09493114207491021	0.4080528070278051	0.5737389797702217	0.11075230586317379	0.43368824289518915	0.6072061523348196	0.38938572052310627	0.292393519016534	0.5163910314700857	0.5905277035416078	0.18799335254214156	0.5318184613561645	0.6838457914107754	0.1883958107115836	0.5363525955889186	0.6944399492019614	0.2281674086570595	0.6028272974115376	0.711746398293198	0.09263184530377044	0.6164222465920992	0.11589912074198222	0.07467194914715511	0.6548461381543264	0.4123092540057216	0.178557344208096	0.5269747329476736	0.606383347657207	0.22403659326168635	0.5585315653824248	0.6776433036619468	0.22669922731301254	0.5718090094934524	0.6979583635723978	0.20979430901986457	0.5726160808522104	0.7095189087975047
223	4.288461538461538	0.34287202852814846	0.6597666285969757	0.5769303875012631	0.3270441134795802	0.8088600604069821	0.9903917336812167	0.33469896722104064	0.9367132139577519	1.392225201308082	0.30315722226397823	0.7793312763840052	1.4071824928523788	0.37715899560783667	0.7990098478324947	1.4090926191307789	0.3448417159083135	1.001472972399152	1.4588745248017263	0.12821841521124536	0.7348929074991651	0.5987109151162321	0.11955424573946344	0.8411407051308504	0.9884108342389119	0.12719332879765177	0.9576450290801668	1.394952832454967	0.14747734037256244	0.8555272661567691	1.4223438433537532	0.18382453661612203	1.1640475898486418	1.5457988266707676	0.13354996214243622	1.0036156803502279	1.4315846236961673	0.23847606263425508	0.6081500596597773	0.00475899534112687	0.21358847146894958	0.5343508944643396	-0.2363957271284573	0.20999930880737	0.48321641205405014	-0.09457715224841691	0.40808955024521476	0.573649305275103	0.11078549210438267	0.43542327953598736	0.6106201996626032	0.38822476120609095	0.2924094906748277	0.5163680064723217	0.5896094533176792	0.18804995328184546	0.5316523062426213	0.683795561971887	0.18858738000636993	0.5359487638502567	0.6934746292818463	0.22817252604983615	0.6028264265677103	0.7117166361824772	0.09256902051329631	0.6164281867229112	0.11589461733577244	0.07467016609454397	0.6548284308342077	0.4111477400787644	0.17863129788257515	0.527231751758716	0.6064420092867377	0.22264385254233693	0.555408923880365	0.6776079442719928	0.22669022237183253	0.5718508886843094	0.6979487856294715	0.211487448649388	0.5772040495924035	0.7099272076157552
224	4.307692307692308	0.34224649634852106	0.663748541304384	0.5785747264848256	0.32684882456771003	0.8097080339201855	0.9934053612780593	0.33471059081738874	0.9366436909978401	1.3920672900500217	0.30254182538381813	0.7782194836427695	1.4070134553497322	0.3763973952312337	0.7968924192815865	1.4082135014367219	0.34460764742408967	1.0016251225701422	1.4589537692673868	0.1283065364989503	0.7349999213660372	0.5990880178642645	0.11947290996668564	0.8417800564684038	0.9898125503631241	0.12703184339189502	0.9576533984492245	1.394957057235193	0.14761908111176386	0.8534948028185219	1.421764075206886	0.18200764949175008	1.1603771664816922	1.5433379868254449	0.13356922328030074	1.0041615283389493	1.4321167326968323	0.23606907134145977	0.605089055072479	0.006296454222972861	0.21183545648567442	0.5348605668405806	-0.23567259568896687	0.21001640631204777	0.4827701541219942	-0.0945687862588979	0.40823798876905704	0.5733010974931005	0.11091766425058024	0.43666236034524497	0.6130767668233684	0.38790854948195497	0.2923764212040558	0.5164184671160919	0.5893396966392815	0.18776775062339615	0.5318804577035657	0.6836498031077864	0.18881614431492824	0.5357177953912204	0.692166808216784	0.22816328007330472	0.6028477354756776	0.7117929260283006	0.09252072572087633	0.6163694351451084	0.11589846650750044	0.07470290984144115	0.6547828566755075	0.4098861282242732	0.17868695291418454	0.5272305707733663	0.6064425959280566	0.22220831393978277	0.5545619955007047	0.6773508173696927	0.22666423080772782	0.5719361041333662	0.6979261810583546	0.21262709410444344	0.5802520285933195	0.7101468663786799
225	4.326923076923077	0.3413473897898963	0.6693756693369414	0.5798047045733138	0.3271746207837143	0.8100078617091769	0.9956555110301167	0.3347282295147863	0.9364395364662692	1.391910405984973	0.3026143923732735	0.7742533079404881	1.4062150992979499	0.3759044632179286	0.7955884309740816	1.4077972546331323	0.3442119041934565	1.00155610092532	1.45895052865733	0.12845094120777634	0.7353937344139133	0.5998453331214618	0.1195046956191415	0.8426715596991403	0.9908559782079368	0.12692322942823756	0.9576560900664068	1.394979876090513	0.14914540344629315	0.8492131224950153	1.421327126269482	0.1785508785790017	1.1530185131723192	1.5397620938597196	0.13360066501846185	1.0053426239312193	1.433809704828058	0.23407822378225165	0.6040012364481855	0.006878978284986961	0.21086700922609514	0.535670099835271	-0.23445177293216654	0.20978442703093253	0.48372474036788654	-0.0948460338610776	0.40837738209458296	0.5729741089102182	0.11104044500911042	0.43707016763322654	0.6139047569680081	0.388002277680056	0.29238138228277366	0.5164745427677611	0.5893744102398046	0.18673718202886166	0.5323018288430865	0.6834978744260274	0.1889625224696956	0.5354736961047114	0.6912423104068787	0.22816293004797672	0.6028606369668744	0.711867783901717	0.09246604708426662	0.616348453281429	0.11590913046822152	0.07471207554925843	0.6548280614170925	0.41012226600676716	0.17870976022758156	0.5271263817746048	0.6064069562400795	0.22213922977411374	0.5546169850523328	0.677137907377276	0.22663133124179372	0.5720527866751999	0.6978986740510982	0.21287396150865473	0.5809524774733853	0.7101270863935851
226	4.346153846153846	0.3407111843152403	0.6733536959624384	0.5803179117326912	0.3282387161083	0.8105424591666387	0.9964637922899144	0.3346969563630452	0.9360882775598116	1.3918732114975276	0.30282410887416794	0.7711927851509593	1.4047949800671846	0.37512186165627803	0.7939957925577683	1.4079800024439695	0.3443855896034212	1.0012542487539537	1.4589075417882842	0.12854136773169023	0.7359825844007016	0.6003930896136415	0.11954292042088473	0.8433233168860611	0.9913388301585979	0.12694005915271983	0.9577369194314883	1.3950598963150211	0.15108123487488678	0.842703443217184	1.4201612684631038	0.17310496220141083	1.1411124510646515	1.5345628667573892	0.133513762726939	1.0065205759132854	1.4360077286618078	0.2329703297350264	0.6040404168472803	0.006899281302240949	0.21071241187729003	0.5361403074385772	-0.2335402737332526	0.20905874373129363	0.48749715353209544	-0.09553687526037766	0.4079427769524922	0.573925446407257	0.11067832604489866	0.4371437048268279	0.6139779797022241	0.3880924146345187	0.29241838425138145	0.5165425721530739	0.5893459975278483	0.18526524862087404	0.5324655102916298	0.683437639261208	0.18899953960381513	0.5352557234701325	0.6909736479357568	0.22817974436646044	0.6028666557281587	0.7118628617457688	0.09236606717089202	0.6164146269518873	0.11591336027033022	0.07460533062431343	0.6550996097746394	0.4122712258892791	0.1787199419139065	0.5270799892856991	0.6063817710894364	0.22209372656977455	0.5545601693894974	0.6770565485603975	0.22661762110714606	0.5720859924523759	0.6978493795263578	0.2127131548583175	0.5806594975743935	0.7100612005532111
227	4.365384615384615	0.34079065694370186	0.6745067505556495	0.5803696772739586	0.3292237725922505	0.8113523289335167	0.9957870337150557	0.33462062199594267	0.9358048015307254	1.392237740129776	0.3024567357555424	0.7731728873136329	1.4037978573155048	0.3730758115532904	0.7897928935497268	1.4081413690178437	0.3446058999665894	1.001070529240051	1.458964916000857	0.12859907971679513	0.7366326627479995	0.6003372732613027	0.11979493408228631	0.843587829248438	0.9911765641804364	0.1270117318512312	0.9578750246730179	1.3951559606220605	0.15173006368837114	0.8361222155572261	1.4179658895666405	0.16865535571295445	1.1313532166876838	1.5304489745312382	0.1331732440808208	1.0068218895753749	1.4373714377433835	0.2326247085169379	0.6040936318807363	0.006513461127102803	0.21041799404788233	0.5348806346567956	-0.2338369158274395	0.2080870940597091	0.4927013954171743	-0.09642537934589823	0.4063524554738337	0.577416259901773	0.10933876871025712	0.4372259207342605	0.6138696343761674	0.38809940563547596	0.2924541543043969	0.5166402709932316	0.589259753255187	0.1842197532188322	0.5323182110923232	0.6834776209363622	0.18925189194254002	0.5362204815162016	0.6911211564908942	0.22820256159426178	0.6028841530383492	0.7118026271109901	0.09223646813947683	0.616507646982418	0.11591210382491017	0.07439416998677496	0.6555210707252147	0.4148540978691611	0.17872460987638789	0.5271092913111033	0.6063737071732473	0.22248011467589587	0.5553313790358898	0.6771629216210854	0.22661098636012184	0.5719148430119487	0.6977471864913178	0.21258744453378692	0.5805143067554958	0.710092257485404
